<svg width="400" height="400" viewBox="0 0 400 400" fill="none" xmlns="http://www.w3.org/2000/svg">
<rect width="400" height="400" fill="#1E1E1E"/>
<rect width="400" height="400" fill="white"/>
<path d="M118.186 265.067C110.052 265.067 102.435 263.516 95.3358 260.413C88.2361 257.309 82.0063 253.007 76.6463 247.506C71.2863 241.958 67.0782 235.54 64.0221 228.253C61.013 220.918 59.5084 213.066 59.5084 204.697C59.5084 196.281 61.013 188.429 64.0221 181.141C67.0782 173.853 71.2863 167.459 76.6463 161.958C82.0063 156.41 88.2361 152.084 95.3358 148.981C102.435 145.878 110.052 144.326 118.186 144.326C126.32 144.326 133.937 145.878 141.037 148.981C148.136 152.084 154.366 156.41 159.726 161.958C165.086 167.459 169.271 173.853 172.28 181.141C175.336 188.429 176.864 196.281 176.864 204.697C176.864 213.066 175.336 220.918 172.28 228.253C169.271 235.54 165.086 241.958 159.726 247.506C154.366 253.007 148.136 257.309 141.037 260.413C133.937 263.516 126.32 265.067 118.186 265.067ZM118.186 251.244C124.299 251.244 129.964 250.069 135.183 247.718C140.449 245.367 145.033 242.099 148.936 237.915C152.885 233.683 155.941 228.746 158.104 223.104C160.314 217.415 161.419 211.279 161.419 204.697C161.419 198.114 160.314 192.002 158.104 186.36C155.941 180.671 152.885 175.734 148.936 171.549C145.033 167.318 140.449 164.027 135.183 161.676C129.964 159.325 124.299 158.149 118.186 158.149C112.074 158.149 106.385 159.325 101.119 161.676C95.9 164.027 91.3158 167.318 87.3663 171.549C83.4639 175.734 80.4077 180.671 78.1979 186.36C76.0351 192.002 74.9537 198.114 74.9537 204.697C74.9537 211.279 76.0351 217.415 78.1979 223.104C80.4077 228.746 83.4639 233.683 87.3663 237.915C91.3158 242.099 95.9 245.367 101.119 247.718C106.385 250.069 112.074 251.244 118.186 251.244Z" fill="black"/>
<path d="M225.845 290.886C211.857 290.886 204.863 285.785 204.863 275.582C204.863 269.987 206.509 267.189 209.8 267.189C210.787 267.189 211.281 268.012 211.281 269.658C211.281 269.987 211.281 270.398 211.281 270.892C211.281 271.386 211.199 272.044 211.034 272.867C210.87 273.69 210.787 274.43 210.787 275.088C210.787 275.747 210.787 276.24 210.787 276.569C210.787 283.481 215.313 286.937 224.364 286.937C239.174 286.937 250.364 275.006 257.934 251.145C259.086 247.524 260.567 241.271 262.377 232.385C264.188 223.498 266.245 211.815 268.548 197.333C271.346 181.206 274.802 167.465 278.916 156.111C283.03 144.591 287.967 135.54 293.726 128.958C290.106 127.641 285.91 126.572 281.137 125.749C276.53 124.926 271.511 124.515 266.08 124.515C253.244 124.515 241.725 127.23 231.522 132.661C221.484 138.091 213.503 145.496 207.578 154.876C201.819 164.092 198.939 174.706 198.939 186.719C198.939 192.972 200.009 198.896 202.148 204.492C204.287 210.087 207.414 214.612 211.528 218.068C215.642 221.524 220.579 223.252 226.338 223.252C232.098 223.252 237.117 221.606 241.396 218.315C245.839 215.024 249.212 210.745 251.516 205.479C253.985 200.048 255.219 194.124 255.219 187.706C255.219 181.288 253.902 175.611 251.269 170.674C248.637 165.573 244.276 163.022 238.187 163.022C233.579 163.022 229.712 164.668 226.585 167.959C223.623 171.086 222.142 174.953 222.142 179.561C222.142 184.333 223.87 186.884 227.326 187.213C228.313 187.213 229.136 186.966 229.794 186.472C230.617 186.472 231.028 186.801 231.028 187.459C231.028 188.941 229.63 189.681 226.832 189.681C224.693 189.681 222.636 188.694 220.661 186.719C218.851 184.744 217.946 182.44 217.946 179.807C217.946 174.541 220.085 169.934 224.364 165.984C228.642 161.87 233.415 159.813 238.681 159.813C243.782 159.813 247.978 161.294 251.269 164.256C254.561 167.218 257.029 171.003 258.675 175.611C260.32 180.219 261.143 184.909 261.143 189.681C261.143 200.871 257.523 210.004 250.282 217.081C243.206 223.992 234.073 227.448 222.883 227.448C215.807 227.448 209.718 225.555 204.616 221.771C199.679 217.821 195.895 212.802 193.262 206.713C190.793 200.46 189.559 193.877 189.559 186.966C189.559 173.143 193.015 161.376 199.926 151.667C206.838 141.958 216.053 134.553 227.573 129.452C239.092 124.186 251.681 121.553 265.339 121.553C277.352 121.553 287.802 123.116 296.688 126.243C303.435 119.496 310.429 116.122 317.67 116.122C320.303 116.122 321.619 116.616 321.619 117.603C321.619 118.426 320.714 118.837 318.904 118.837C312.322 118.837 306.644 121.717 301.872 127.477C326.885 136.528 339.392 150.845 339.392 170.427C339.392 177.339 337.582 183.592 333.962 189.187C330.341 194.618 325.487 199.39 319.398 203.504C313.474 207.454 306.891 210.498 299.651 212.637C292.574 214.777 285.581 215.929 278.669 216.093C276.201 235.018 272.333 249.581 267.067 259.784C260.156 273.443 249.13 283.316 233.991 289.405C231.522 290.393 228.807 290.886 225.845 290.886ZM278.669 213.131C288.214 212.637 296.771 210.745 304.341 207.454C311.91 204.162 317.917 199.472 322.36 193.384C326.803 187.13 329.025 179.396 329.025 170.181C329.025 152.243 319.069 139.161 299.157 130.933C289.119 145.908 282.289 173.307 278.669 213.131Z" fill="black"/>
</svg>
